<svg data-v-0dd9719b="" version="1.0" xmlns="http://www.w3.org/2000/svg" xmlns:xlink="http://www.w3.org/1999/xlink" width="100%" height="100%" viewBox="0 0 340.000000 250.000000" preserveAspectRatio="xMidYMid meet" color-interpolation-filters="sRGB" style="margin: auto;"> <rect data-v-0dd9719b="" x="0" y="0" width="100%" height="100%" fill="#fff" fill-opacity="1" class="background"></rect> <rect data-v-0dd9719b="" x="0" y="0" width="100%" height="100%" fill="url(#watermark)" fill-opacity="1" class="watermarklayer"></rect> <g data-v-0dd9719b="" fill="#333" class="icon-text-wrapper icon-svg-group iconsvg" transform="translate(46.91999816894531,86.41627883911185)"><g class="iconsvg-imagesvg" transform="translate(0,0)"><g><rect fill="#333" fill-opacity="0" stroke-width="2" x="0" y="0" width="60.00000000000001" height="77.16744048461153" class="image-rect"></rect> <svg x="0" y="0" width="60.00000000000001" height="77.16744048461153" filtersec="colorsb4100600201" class="image-svg-svg primary" style="overflow: visible;"><svg xmlns="http://www.w3.org/2000/svg" viewBox="0.0509490966796875 0.00002288818359375 206.5575714111328 265.65997314453125"><defs><linearGradient id="a4430edb5-91e0-4577-98aa-fe45dc6cd434" x1="148.84" y1="172.89" x2="386.63" y2="340.78" gradientTransform="matrix(1 0 0 -1 0 502)" gradientUnits="userSpaceOnUse"><stop offset="0" stop-color="#2eade8"></stop><stop offset="1" stop-color="#3ad666"></stop></linearGradient></defs><path d="M357.14 188.25a103.21 103.21 0 0 0-16.58-23c-.54 14.44-4.23 29.52-12.31 45.55A171.77 171.77 0 0 1 309 240.29s10.43-5.35 22.86-17.56a67.52 67.52 0 0 1-18.37 61.71l-47.82 47.83c-34.29-34.28 19-86 47.24-144 5.66-11.66 10.31-23.57 13-35.65a95.39 95.39 0 0 0 1.67-35.43A91.08 91.08 0 0 1 320.5 149a103.42 103.42 0 0 0-129.42 159.2c.7-14.3 6.23-28.3 14.2-41.18 18.81-30.4 51.15-54.52 65.36-61.32-.78.28-41.18 10-72.37 36.1a67.65 67.65 0 0 1 105.22-61.29c-25.73 38.89-64.55 76.09-78.13 111.42-8.48 22-7.14 43.34 13.31 63.89l.16.16 26.88 26.87 73.12-73.11a103.54 103.54 0 0 0 18.31-121.49z" transform="translate(-162.5 -117.19)" fill="url(#a4430edb5-91e0-4577-98aa-fe45dc6cd434)"></path></svg></svg> <!----></g></g> <g transform="translate(67,21.928720474243164)"><g data-gra="path-name" fill-rule="" class="tp-name iconsvg-namesvg"><g transform="scale(1)"><g><path d="M0.93-31.22L12.96-31.86 11.38-1.04 1.83-0.54 0.93-31.22ZM37.22-31.81L37.22-31.81 35.95-22.26Q35.29-22.44 34.64-22.51 33.98-22.58 33.33-22.58L33.33-22.58Q31.65-22.58 30.14-22.14 28.62-21.7 27.45-20.79 26.29-19.89 25.6-18.53 24.91-17.17 24.91-15.34L24.91-15.34Q24.91-14.16 25.28-13.3 25.66-12.44 26.33-11.88 27.01-11.31 27.94-11.04 28.87-10.77 29.98-10.77L29.98-10.77Q30.81-10.77 31.72-10.95 32.62-11.13 33.51-11.43 34.39-11.72 35.23-12.1 36.06-12.49 36.76-12.9L36.76-12.9 35.86-2.26Q34.98-1.81 33.95-1.46 32.92-1.11 31.83-0.85 30.75-0.59 29.66-0.45 28.57-0.32 27.58-0.32L27.58-0.32Q24.71-0.32 22.22-1.38 19.73-2.44 17.9-4.3 16.06-6.15 15.01-8.68 13.96-11.2 13.96-14.12L13.96-14.12Q13.96-17.99 15.07-21.41 16.18-24.84 18.33-27.42 20.48-30 23.65-31.49 26.83-32.99 30.97-32.99L30.97-32.99Q32.53-32.99 34.17-32.74 35.81-32.49 37.22-31.81ZM58.35-32.4L67.17-1.95 55.95-0.5 54.59-5.61 49.43-5.61 48.3-0.5 36.76-1.63 45.77-31.76 58.35-32.4ZM50.38-12.53L53.78-12.53 52.06-20.41 50.38-12.53ZM94-20.86L94-20.86Q94-18.67 93.35-16.97 92.69-15.27 91.55-13.99 90.41-12.71 88.87-11.84 87.33-10.97 85.58-10.42 83.82-9.86 81.95-9.6 80.07-9.34 78.26-9.32L78.26-9.32 78.26 0.32 67.71 0.32Q67.71-2.26 67.73-4.71 67.74-7.15 67.75-9.56 67.76-11.97 67.77-14.41 67.78-16.86 67.81-19.46L67.81-19.46Q67.85-22.22 67.83-24.98 67.81-27.74 67.94-30.54L67.94-30.54Q70.84-31.4 73.73-31.83 76.63-32.26 79.71-32.26L79.71-32.26Q81.45-32.26 83.19-31.98 84.93-31.7 86.53-31.09 88.12-30.48 89.49-29.56 90.86-28.64 91.86-27.38 92.85-26.11 93.43-24.48 94-22.85 94-20.86ZM83.96-20.09L83.96-20.09Q83.96-21.56 83.07-22.39 82.17-23.21 80.75-23.21L80.75-23.21Q80.27-23.21 79.76-23.13 79.25-23.05 78.8-22.94L78.8-22.94 78.53-16.33Q78.85-16.29 79.14-16.29 79.43-16.29 79.75-16.29L79.75-16.29Q80.57-16.29 81.32-16.56 82.08-16.83 82.67-17.34 83.26-17.85 83.61-18.54 83.96-19.23 83.96-20.09ZM95.07-31.22L107.1-31.86 105.52-1.04 95.97-0.54 95.07-31.22ZM108.24-31.86L132.9-31.9 132.67-22.31 125.93-22.04 125.11-1.04 115.57-0.54 114.71-21.54 107.96-21.18 108.24-31.86ZM150.95-32.4L159.77-1.95 148.55-0.5 147.19-5.61 142.04-5.61 140.9-0.5 129.37-1.63 138.37-31.76 150.95-32.4ZM142.99-12.53L146.38-12.53 144.66-20.41 142.99-12.53ZM170.9-11.99L180.09-11.99 179.14-1.95 160.09-0.45 160.81-32.76 172.58-32.76 170.9-11.99Z" transform="translate(-0.9300000667572021, 32.9900016784668)"></path></g> <!----> <!----> <!----> <!----> <!----> <!----> <!----></g></g> <!----></g></g><defs v-gra="od"></defs></svg>